<svg xmlns="http://www.w3.org/2000/svg" viewBox="0 0 298.7 300"><defs><filter id="a" width="1.15" height="1.16" x="-.07" y="-.07" color-interpolation-filters="sRGB"><feFlood flood-color="#000" flood-opacity=".75" result="flood"/><feGaussianBlur in="SourceGraphic" result="blur" stdDeviation="5"/><feOffset dy="3" in="blur" result="offset"/><feComposite in="flood" in2="offset" operator="in" result="comp1"/><feComposite in="SourceGraphic" in2="comp1" result="comp2"/></filter></defs><ellipse cx="148.02" cy="149.56" fill="#8fc042" paint-order="markers fill stroke" rx="114.43" ry="114.86"/><svg filter="url(#a)"><defs><clipPath id="b"><path fill="none" d="M0 0h298.7v300H0z"/></clipPath></defs><g fill="none" stroke-miterlimit="10" clip-path="url(#b)" font-family="none" font-size="none" font-weight="none" style="mix-blend-mode:normal" text-anchor="none"><path fill="#f8f7f6" d="M97.63 68.57c1.31-.16 5.52-.1 6.8.01 8.92.78 17.08 5.2 22.86 11.96a34.16 34.16 0 0 1 7.97 18.38c.25 2.42.2 5.4.18 7.89-.01 2.48.07 5.4-.11 7.83 2.56-2.2 7.2-7.14 9.8-9.73l19.27-19.27c3.82-3.83 8.37-8.85 12.76-11.72a34.02 34.02 0 0 1 15.08-5.32c9.47-.87 18.13 1.45 25.56 7.6 23.94 19.82 11.63 58.77-19.4 61.04-10.07.73-18.26-2.45-25.85-9.03-7.37 7.02-14.94 15.01-22.27 22.23l22.2 22.16.44-.47c5.84-5.74 15.04-8.81 23.12-8.83a34.5 34.5 0 0 1 33.12 25.23c1.02 3.67 1.2 6.61 1.18 10.4-.42 8.95-3.6 16.75-9.96 23.16a34.48 34.48 0 0 1-42.86 4.87c-3.83-2.4-6.24-5.09-9.4-8.25l-7.46-7.48-25.3-25.28.04.83c.17 4.13.27 10.78-.13 14.78a34.18 34.18 0 0 1-8.87 19.54 34.36 34.36 0 0 1-24.34 11.14 34.43 34.43 0 0 1-24.7-9.35 34.03 34.03 0 0 1-10.76-23.48c-.32-9.54 2.66-18.22 9.23-25.22a34.59 34.59 0 0 1 24.15-10.87c-.08-8.7.05-17.4-.06-26.12-7.15.05-14.71-2.8-20.28-7.26a34.54 34.54 0 0 1-12.87-23.02c-2.13-19.37 11.47-36.35 30.86-38.35Z"/><path fill="#8fc042" d="M121.2 151.75c.74.5 3.4 3.25 4.15 3.98l8.08 8.1 35.39 35.39 8.76 8.77c2 2.02 4.8 5.05 7.01 6.59a19.3 19.3 0 0 0 9.64 3.31c5.77.36 10.78-1.13 15.13-5.02a19.86 19.86 0 0 0 6.7-13.78c1.01-18.32-20.45-28.42-33.53-16.44-1.72-1.67-3.28-3.34-5.08-4.95 5.79-4.4 10.4-6.95 17.96-7.12a27.1 27.1 0 0 1 19.36 7.61 27.1 27.1 0 0 1 .37 38.79 27.27 27.27 0 0 1-19.36 8.02c-10.8-.06-16.5-5.29-23.48-12.29l-8.35-8.38-22.27-22.25c-4.28-4.27-9.36-9.13-13.42-13.53-.12 6.76.07 13.66 0 20.42-.06 4.86.3 10.25-.78 14.97a26.6 26.6 0 0 1-5.4 11 27.4 27.4 0 0 1-18.82 9.96c-7 .64-14.42-1.8-19.78-6.34a27.1 27.1 0 0 1-9.59-18.6 27.27 27.27 0 0 1 6.44-19.86c5.15-5.99 11.83-8.96 19.61-9.55l.04 7.02a20.41 20.41 0 0 0-12.73 5.35 19.73 19.73 0 0 0-6.44 13.93c-.18 5.63 1.54 10.66 5.45 14.78a19.82 19.82 0 0 0 14.3 6.33 20.04 20.04 0 0 0 14.47-5.6 20.79 20.79 0 0 0 5.86-10.65c.52-2.53.32-11.72.32-14.96l.01-22.39c0-4.14-.1-8.48-.01-12.6zM99.62 75.72c.56-.04 1.12-.06 1.68-.06a27.4 27.4 0 0 1 18.99 8.02 26.73 26.73 0 0 1 7.08 12.6c1.2 4.77.89 12.04.88 17.2l-.01 18.57 34.63-34.61 9.54-9.57c2.34-2.33 4.9-5.09 7.54-7a27.16 27.16 0 0 1 32 .03 27.25 27.25 0 0 1 10.86 17.9 27.38 27.38 0 0 1-5.16 20.41 27.24 27.24 0 0 1-18.15 10.6c-8.73 1.2-15.1-1.51-21.85-6.64 1.29-1.43 3.62-3.71 5.02-5.03 3.93 3.88 10.5 5.44 15.86 4.78a20.13 20.13 0 0 0 13.42-7.71 20.44 20.44 0 0 0 2.45-20.61c-1.57-3.58-3.8-5.98-6.85-8.32a19.55 19.55 0 0 0-11.12-3.61c-9.6-.2-13.47 4.55-19.63 10.71l-10.38 10.38-29.35 29.36c-5.22 5.22-10.67 10.85-16 15.93.04-.36.07-.72.08-1.08.14-3.62.06-7.6.06-11.24v-18.99l.01-9.71c.02-2.94.17-6.62-.41-9.44A20.24 20.24 0 0 0 87.15 88.1a19.8 19.8 0 0 0-6.34 14.06c-.3 10.9 8.12 20.63 19.16 20.89-.02 2.36-.01 4.71 0 7.07a27.61 27.61 0 0 1-16.67-6.62 27.24 27.24 0 0 1-9.43-18.64 26.96 26.96 0 0 1 6.62-19.8c5.08-5.8 11.5-8.82 19.13-9.34z"/><path fill="#8fc042" d="M194.12 90c3.1-.23 5.37.02 8.15 1.57 3 1.69 5.2 4.52 6.12 7.84.88 3.29.42 7.05-1.3 10a13.03 13.03 0 0 1-8.1 6.05c-4.45 1.11-7.6-.17-11.3-2.38 1.69-1.72 3.4-3.43 5.15-5.1a6 6 0 0 0 9.27-4.56 5.7 5.7 0 0 0-1.44-4.25 6.15 6.15 0 0 0-4.48-2.1c-3.62-.07-6.4 3.73-8.79 6.13l-9.95 9.96-23.49 23.5c-4.58 4.63-9.21 9.23-13.88 13.79 4.77 4.57 9.6 9.54 14.28 14.22l25.66 25.67c2.88 2.88 10.13 10.6 13.23 12.86 3.4 2.47 10.8-1.22 8.23-8.01-2.06-3.06-5.33-4.5-8.62-2.2-1.76-1.73-3.5-3.47-5.24-5.23 5.38-3.92 11.92-4.14 17.01.43a12.4 12.4 0 0 1 4.18 8.88c.16 3.6-.97 6.83-3.43 9.5a12.94 12.94 0 0 1-9.02 4.18c-6.55.23-9.99-4.14-14.18-8.35l-9.47-9.47-28.01-28c-4.58-4.58-10-10.3-14.7-14.64 4.82-4.6 9.76-9.7 14.5-14.43l26.63-26.62 10.16-10.18c3.87-3.9 7.12-8.13 12.83-9.07zm-95-.02c8.96-.42 14.87 4.86 14.86 13.88l.01 12.25v75.86c.03 4.67.51 8.93-2.25 13.01a12.84 12.84 0 0 1-18.16 3.38 12.83 12.83 0 0 1-5.36-8.3c-1.43-8.02 4.09-14 11.76-15.3v7.13a7.69 7.69 0 0 0-3.83 2.68c-.87 1.46-1.3 2.8-.92 4.53a6.11 6.11 0 0 0 2.92 3.97c4.19 2.41 9.04-.78 8.95-5.55-.06-3-.03-6.1-.03-9.1l.01-20.04V121.2c0-2.6.2-18.57-.3-20.11a6.01 6.01 0 0 0-8.03-3.63 6.2 6.2 0 0 0-3.31 3.59 5.93 5.93 0 0 0 .31 4.6A6.75 6.75 0 0 0 100 109l-.05 6.93a15.91 15.91 0 0 1-5.93-2.14 13.08 13.08 0 0 1-5.7-8.28 12.72 12.72 0 0 1 1.85-9.73c2.18-3.3 5.15-5.02 8.96-5.8z"/></g></svg></svg>