<svg xmlns="http://www.w3.org/2000/svg" width="63.55" height="63.55" viewBox="0 0 16.81 16.81"><defs><linearGradient id="b" x1="0" x2="1" y1="0" y2="0" gradientTransform="scale(476.63 -476.63) rotate(45 10.45 4.12)" gradientUnits="userSpaceOnUse" spreadMethod="pad"><stop offset="0" stop-color="#7041a4"/><stop offset="1" stop-color="#5a4ba9"/></linearGradient><clipPath id="a" clipPathUnits="userSpaceOnUse"><path d="M3256.11 2778.91c0-131.62-106.69-238.32-238.31-238.32s-238.31 106.7-238.31 238.32c0 131.61 106.69 238.31 238.31 238.31s238.31-106.7 238.31-238.31z"/></clipPath></defs><path fill="url(#b)" d="M3256.11 2778.91c0-131.62-106.69-238.32-238.31-238.32s-238.31 106.7-238.31 238.32c0 131.61 106.69 238.31 238.31 238.31s238.31-106.7 238.31-238.31" clip-path="url(#a)" transform="matrix(.03528 0 0 -.03528 -98.05 106.44)"/><path fill="#fff" d="m11.8 8.49-1.21 1.2h-1.2l-1.05 1.05V9.69H6.98v-4.5h4.81zM6.67 4.58l-1.5 1.5v5.41h1.8V13l1.5-1.5h1.2l2.71-2.7V4.58H6.7"/><path fill="#fff" d="M10.29 6.23h.6v1.8h-.6v-1.8M8.64 6.23h.6v1.8h-.6v-1.8"/></svg>